<?xml version="1.0" encoding="UTF-8"?>
<!-- Do not edit this file with editors other than draw.io -->
<!DOCTYPE svg PUBLIC "-//W3C//DTD SVG 1.1//EN" "http://www.w3.org/Graphics/SVG/1.1/DTD/svg11.dtd">
<svg xmlns="http://www.w3.org/2000/svg" style="background-color: rgb(255, 255, 255);" xmlns:xlink="http://www.w3.org/1999/xlink" version="1.1" width="100px" height="100px" viewBox="-0.5 -0.5 100 100" content="&lt;mxfile host=&quot;app.diagrams.net&quot; modified=&quot;2024-03-11T17:48:11.657Z&quot; agent=&quot;Mozilla/5.0 (Macintosh; Intel Mac OS X 10.15; rv:123.0) Gecko/20100101 Firefox/123.0&quot; etag=&quot;i4uaHX4QcxGjJXDfx6KE&quot; version=&quot;24.0.2&quot; scale=&quot;1&quot; border=&quot;0&quot;&gt;&#xA;  &lt;diagram name=&quot;Page-1&quot; id=&quot;Z4Tf4RuR5y4KpzmjsLFA&quot;&gt;&#xA;    &lt;mxGraphModel dx=&quot;1242&quot; dy=&quot;713&quot; grid=&quot;1&quot; gridSize=&quot;10&quot; guides=&quot;1&quot; tooltips=&quot;1&quot; connect=&quot;1&quot; arrows=&quot;1&quot; fold=&quot;1&quot; page=&quot;1&quot; pageScale=&quot;1&quot; pageWidth=&quot;850&quot; pageHeight=&quot;1100&quot; math=&quot;0&quot; shadow=&quot;0&quot;&gt;&#xA;      &lt;root&gt;&#xA;        &lt;mxCell id=&quot;0&quot; /&gt;&#xA;        &lt;mxCell id=&quot;1&quot; parent=&quot;0&quot; /&gt;&#xA;        &lt;mxCell id=&quot;LetrnUYjiLA3O0MiOnag-1&quot; value=&quot;&quot; style=&quot;image;aspect=fixed;perimeter=ellipsePerimeter;html=1;align=center;shadow=0;dashed=0;fontColor=#4277BB;labelBackgroundColor=default;fontSize=12;spacingTop=3;image=img/lib/ibm/infrastructure/monitoring_logging.svg;&quot; vertex=&quot;1&quot; parent=&quot;1&quot;&gt;&#xA;          &lt;mxGeometry x=&quot;340&quot; y=&quot;210&quot; width=&quot;100&quot; height=&quot;100&quot; as=&quot;geometry&quot; /&gt;&#xA;        &lt;/mxCell&gt;&#xA;      &lt;/root&gt;&#xA;    &lt;/mxGraphModel&gt;&#xA;  &lt;/diagram&gt;&#xA;&lt;/mxfile&gt;&#xA;"><defs/><rect fill="#ffffff" width="100%" height="100%" x="0" y="0"/><g><g><svg xmlns="http://www.w3.org/2000/svg" viewBox="0 0 58.8 58.7" x="-0.5" y="-0.5" width="100" height="100"><circle cx="29.4" cy="29.4" r="29.4" fill="#8dc63f"/><path d="M13.2 41.3V17H12v25.4h34.7v-1.1zm2.3-11.6h8.1V39h-8.1zM34 20.5h-8.1V39H34V20.5zm-1.2 17.3H27V21.6h5.8v16.2zm3.5-11.6h8.1v1.2h-8.1zm0 2.3h8.1v1.2h-8.1zm0 2.4h8.1v1.2h-8.1zm0 2.3h8.1v1.2h-8.1zm0 2.3h8.1v1.2h-8.1zm0 2.3h8.1V39h-8.1z" fill="#fff"/></svg></g></g></svg>